<?xml version="1.0" encoding="utf-8"?>
<!-- Generator: Adobe Illustrator 16.0.4, SVG Export Plug-In . SVG Version: 6.00 Build 0)  -->
<!DOCTYPE svg PUBLIC "-//W3C//DTD SVG 1.1//EN" "http://www.w3.org/Graphics/SVG/1.1/DTD/svg11.dtd">
<svg version="1.1" id="Layer_1" xmlns="http://www.w3.org/2000/svg" xmlns:xlink="http://www.w3.org/1999/xlink" x="0px" y="0px"
	 width="272.513px" height="70.173px" viewBox="0 0 272.513 70.173" enable-background="new 0 0 272.513 70.173"
	 xml:space="preserve">
<g>
	<path fill="#DDDBDB" d="M2.07,43.608c16.974-14.835,23.736-20.217,23.736-26.289c0-4.14-2.415-6.348-6.279-6.348
		c-4.14,0-7.383,2.622-7.383,6.624c0,3.45-2.553,5.52-5.727,5.52c-3.864,0-6.072-2.603-6.072-5.244
		c0-10.557,6.486-16.698,19.803-16.698c11.385,0,18.009,6.21,18.009,14.835c0,10.764-6.624,15.594-20.217,27.531v0.207h15.939
		c2.898,0,5.244,2.346,5.244,5.244s-2.346,5.244-5.244,5.244H6.072C2.76,54.234,0,51.543,0,48.162
		C0,46.368,0.828,44.712,2.07,43.608z"/>
	<path fill="#DDDBDB" d="M39.368,2.139h33.12c2.898,0,5.244,2.346,5.244,5.244s-2.346,5.244-5.244,5.244h-9.936v35.535
		c0,3.657-2.967,6.624-6.624,6.624c-3.657,0-6.624-2.967-6.624-6.624V12.627h-9.936c-2.898,0-5.244-2.346-5.244-5.244
		S36.47,2.139,39.368,2.139z"/>
	<path fill="#DDDBDB" d="M66.259,22.011c0-3.243,2.691-5.934,5.934-5.934c3.312,0,6.003,2.691,6.003,5.934v1.656h0.276
		c1.38-3.312,3.234-7.59,7.314-7.59c4.623,0,6.003,3.381,6.003,5.589c0,2.622-2.001,5.451-5.382,5.451
		c-5.727,0-7.314,4.958-7.314,9.936v11.316c0,3.519-2.898,6.417-6.417,6.417s-6.417-2.898-6.417-6.417V22.011z"/>
	<path fill="#DDDBDB" d="M106.554,15.663c12.834,0,19.734,8.556,19.734,19.734c0,11.454-7.314,19.872-20.01,19.872
		c-12.696,0-19.596-8.487-19.596-19.734C86.682,24.081,93.858,15.663,106.554,15.663z M106.485,46.092c4.761,0,6.9-4.209,6.9-10.626
		c0-6.348-2.139-10.626-6.969-10.626c-4.761,0-6.9,4.209-6.9,10.557C99.516,41.883,101.724,46.092,106.485,46.092z"/>
	<path fill="#DDDBDB" d="M143.676,15.663c12.834,0,19.734,8.556,19.734,19.734c0,11.454-7.314,19.872-20.01,19.872
		c-12.696,0-19.596-8.487-19.596-19.734C123.804,24.081,130.98,15.663,143.676,15.663z M143.607,46.092
		c4.761,0,6.9-4.209,6.9-10.626c0-6.348-2.139-10.626-6.969-10.626c-4.761,0-6.9,4.209-6.9,10.557
		C136.638,41.883,138.846,46.092,143.607,46.092z"/>
	<path fill="#DDDBDB" d="M162.996,21.942c0-3.243,2.622-5.865,5.865-5.865c3.312,0,5.934,2.622,5.934,5.865v0.414
		c2.622-3.588,5.796-6.486,12.282-6.486c10.281,0,15.18,8.556,15.18,18.837c0,12.696-7.245,20.355-17.181,20.355
		c-4.968,0-7.866-2.277-9.246-3.519v12.213c0,3.519-2.898,6.417-6.417,6.417s-6.417-2.898-6.417-6.417V21.942z M182.385,46.438
		c3.726,0,6.969-3.243,6.969-11.04c0-7.797-3.174-10.557-6.693-10.557c-4.071,0-7.176,3.174-7.176,10.557
		C175.485,43.608,178.659,46.438,182.385,46.438z"/>
	<path fill="#DDDBDB" d="M208.536,42.159h1.932c3.312,0,6.003,2.691,6.003,6.003c0,3.381-2.691,6.072-6.003,6.072h-1.932
		c-3.312,0-6.003-2.691-6.003-6.003C202.532,44.851,205.224,42.159,208.536,42.159z M203.567,5.934c0-3.243,2.691-5.934,5.934-5.934
		s5.934,2.691,5.934,5.934v13.11l-1.38,13.731c-0.207,2.277-2.208,4.14-4.554,4.14c-2.415,0-4.416-1.863-4.623-4.209l-1.311-13.662
		V5.934z"/>
</g>
<path fill="#DDDBDB" d="M246.12,14.666c-11.423,0-20.684,9.261-20.684,20.684s9.261,20.684,20.684,20.684
	c11.424,0,20.684-9.261,20.684-20.684S257.543,14.666,246.12,14.666z M255.384,50.424c-2.532,1.555-5.286,2.408-8.259,2.585
	c0-0.329,0-0.647,0-0.978c1.098-0.072,2.18-0.231,3.255-0.519c-0.165-0.635-0.328-1.262-0.493-1.899
	c2.589-0.702,4.827-1.99,6.745-3.905c0.45,0.475,0.894,0.945,1.349,1.425c0.81-0.811,1.494-1.665,2.11-2.589
	c0.283,0.163,0.558,0.322,0.846,0.489C259.476,47.243,257.632,49.043,255.384,50.424z M230.34,27.368
	c0.288,0.166,0.563,0.325,0.849,0.49c-0.49,0.989-0.887,2.005-1.178,3.082c0.627,0.173,1.251,0.346,1.892,0.523
	c-0.686,2.594-0.686,5.174,0,7.768c-0.63,0.174-1.255,0.347-1.913,0.529c0.181,0.529,0.343,1.052,0.538,1.562
	c0.196,0.511,0.425,1.009,0.644,1.524c-0.265,0.153-0.537,0.311-0.827,0.479c-0.972-1.924-1.576-3.951-1.798-6.087
	C228.187,33.78,228.788,30.494,230.34,27.368z M236.729,20.366c2.569-1.614,5.373-2.498,8.41-2.682c0,0.326,0,0.644,0,0.961
	c-0.542,0.065-1.088,0.113-1.628,0.199c-0.541,0.085-1.075,0.207-1.629,0.316c0.17,0.656,0.333,1.283,0.499,1.921
	c-2.587,0.7-4.825,1.989-6.739,3.898c-0.453-0.474-0.899-0.942-1.355-1.418c-0.809,0.811-1.494,1.666-2.109,2.588
	c-0.284-0.164-0.559-0.322-0.846-0.488C232.758,23.503,234.55,21.735,236.729,20.366z M232.161,44.554
	c0.336,0.446,0.654,0.894,0.999,1.319s0.718,0.828,1.108,1.275c0.472-0.493,0.918-0.959,1.373-1.434
	c1.914,1.909,4.151,3.199,6.741,3.899c-0.165,0.634-0.327,1.258-0.494,1.898c0.532,0.149,1.067,0.261,1.608,0.339
	c0.542,0.079,1.088,0.132,1.643,0.198c0,0.306,0,0.623,0,0.959c-2.345-0.134-4.577-0.701-6.688-1.727
	c-2.94-1.427-5.301-3.517-7.121-6.247C231.618,44.868,231.894,44.709,232.161,44.554z M243.951,46.922
	c0.368-1.918,0.736-3.838,1.108-5.775c-0.665-0.13-1.288-0.357-1.869-0.693c-0.583-0.337-1.094-0.763-1.539-1.279
	c-1.489,1.288-2.97,2.569-4.458,3.856c-0.966-1.127-1.691-2.38-2.187-3.781c1.86-0.646,3.709-1.288,5.569-1.934
	c-0.449-1.314-0.45-2.62,0-3.938c-1.855-0.644-3.705-1.286-5.552-1.928c0.091-0.714,1.47-3.11,2.177-3.781
	c1.479,1.28,2.96,2.561,4.451,3.85c0.444-0.511,0.952-0.938,1.535-1.275c0.58-0.334,1.199-0.563,1.874-0.694
	c-0.37-1.93-0.739-3.853-1.11-5.789c1.456-0.272,2.904-0.272,4.371,0c-0.371,1.931-0.739,3.854-1.11,5.788
	c1.361,0.272,2.493,0.925,3.409,1.97c1.484-1.284,2.965-2.564,4.457-3.854c0.964,1.125,1.69,2.377,2.187,3.781
	c-1.857,0.645-3.706,1.287-5.568,1.934c0.447,1.312,0.448,2.622-0.001,3.938c1.857,0.645,3.707,1.287,5.568,1.933
	c-0.494,1.401-1.221,2.653-2.186,3.782c-1.488-1.288-2.969-2.569-4.458-3.856c-0.445,0.515-0.956,0.941-1.539,1.278
	c-0.58,0.334-1.199,0.562-1.87,0.692c0.37,1.929,0.738,3.849,1.106,5.768C247.723,47.195,244.815,47.202,243.951,46.922z
	 M247.119,18.175c0-0.159,0-0.318,0-0.511c5.879,0.476,10.466,3.144,13.833,7.979c-0.056,0.037-0.082,0.056-0.109,0.072
	c-0.248,0.143-0.496,0.286-0.735,0.424c-0.336-0.447-0.654-0.896-0.999-1.321c-0.343-0.422-0.713-0.822-1.083-1.245
	c-0.481,0.474-0.944,0.929-1.414,1.391c-1.896-1.893-4.133-3.183-6.724-3.884c0.165-0.636,0.328-1.263,0.49-1.888
	c-0.351-0.152-1.901-0.405-3.259-0.534C247.119,18.5,247.119,18.337,247.119,18.175z M260.364,39.231
	c0.34-1.281,0.514-2.571,0.514-3.885s-0.174-2.603-0.514-3.883c0.635-0.175,1.26-0.348,1.893-0.522
	c-0.29-1.069-0.683-2.085-1.178-3.081c0.279-0.162,0.554-0.321,0.845-0.49c1.059,2.096,1.672,4.308,1.85,6.64
	c0.299,3.902-0.767,7.245-1.859,9.308c-0.275-0.159-0.551-0.318-0.835-0.482c0.493-0.992,0.889-2.011,1.178-3.082
	C261.624,39.579,260.998,39.406,260.364,39.231z"/>
</svg>
