<?xml version="1.0" encoding="utf-8"?>
<!-- Generator: Adobe Illustrator 16.0.4, SVG Export Plug-In . SVG Version: 6.00 Build 0)  -->
<!DOCTYPE svg PUBLIC "-//W3C//DTD SVG 1.1//EN" "http://www.w3.org/Graphics/SVG/1.1/DTD/svg11.dtd">
<svg version="1.1" id="Layer_1" xmlns="http://www.w3.org/2000/svg" xmlns:xlink="http://www.w3.org/1999/xlink" x="0px" y="0px"
	 width="275px" height="275px" viewBox="0 0 275 275" enable-background="new 0 0 275 275" xml:space="preserve">
<path fill="#DCDCDC" d="M124.134,200.99c-1.849,0-3.341,1.494-3.341,3.343v20.05c0,1.849,1.492,3.343,3.341,3.343
	c1.85,0,3.342-1.494,3.342-3.343v-20.05C127.476,202.484,125.983,200.99,124.134,200.99"/>
<path fill="#DCDCDC" d="M150.867,200.99c-1.85,0-3.342,1.494-3.342,3.343v20.05c0,1.849,1.492,3.343,3.342,3.343
	c1.849,0,3.342-1.494,3.342-3.343v-20.05C154.209,202.484,152.716,200.99,150.867,200.99"/>
<path fill="#DCDCDC" d="M211.017,90.717v-6.683c0-22.056-18.31-40.1-40.675-40.1H137.5h-32.842c-22.364,0-40.674,18.044-40.674,40.1
	v6.683H137.5H211.017z"/>
<path fill="#DCDCDC" d="M217.7,144.184v-33.417c0,0,0-6.683-6.684-6.683V97.4H137.5H63.984v6.684c-6.683,0-6.683,6.683-6.683,6.683
	v33.417c-8.48,3.75-13.367,10.752-13.367,20.05c0,12.423,19.911,29.827,19.911,33.416c0,20.051,13.858,33.416,34.073,33.416
	c7.393,0,14.171-2.344,19.628-6.223c-0.018-0.159-0.096-0.294-0.096-0.46v-20.05c0-3.69,3.002-6.684,6.683-6.684
	c2.98,0,5.422,1.997,6.279,4.699h0.404v-1.358c0-3.688,3.002-6.683,6.683-6.683c3.682,0,6.685,2.994,6.685,6.683v1.358h0.404
	c0.857-2.702,3.298-4.699,6.278-4.699c3.682,0,6.684,2.993,6.684,6.684v20.05c0,0.166-0.078,0.301-0.097,0.46
	c5.457,3.879,12.235,6.223,19.628,6.223c20.217,0,34.074-13.365,34.074-33.416c0-3.589,19.91-20.993,19.91-33.416
	C231.066,154.936,226.18,147.934,217.7,144.184 M94.06,217.7c-5.534,0-10.025-4.491-10.025-10.025s4.491-10.025,10.025-10.025
	s10.024,4.491,10.024,10.025S99.594,217.7,94.06,217.7 M104.084,170.916H92.623c-1.109,0-1.905-0.602-1.905-1.335
	c0-0.74,0.796-1.502,1.905-1.724l11.461-3.624V170.916z M124.134,162.492c-3.903,1.614-7.675,3.625-11.382,5.448
	c-0.605,0.296-1.306,0.518-1.985,0.753v-9.264c4.748-4.08,8.981-6.878,13.367-8.716V162.492z M90.718,137.5
	c-13.366,0-13.366-26.733-13.366-26.733h53.466C130.817,110.767,104.084,137.5,90.718,137.5 M144.185,160.265
	c-2.181-0.521-4.4-0.835-6.685-0.835s-4.503,0.313-6.683,0.835v-11.578c2.115-0.417,4.32-0.679,6.683-0.778
	c2.363,0.1,4.569,0.361,6.685,0.778V160.265z M164.233,168.693c-0.678-0.235-1.379-0.457-1.983-0.753
	c-3.707-1.823-7.48-3.834-11.383-5.448v-11.778c4.386,1.838,8.62,4.636,13.366,8.716V168.693z M180.942,217.7
	c-5.535,0-10.025-4.491-10.025-10.025s4.49-10.025,10.025-10.025c5.534,0,10.025,4.491,10.025,10.025S186.477,217.7,180.942,217.7
	 M170.917,170.916v-6.683l11.461,3.624c1.109,0.222,1.906,0.983,1.906,1.724c0,0.733-0.797,1.335-1.906,1.335H170.917z
	 M184.284,137.5c-13.367,0-40.1-26.733-40.1-26.733h53.466C197.65,110.767,197.65,137.5,184.284,137.5"/>
<path fill="#DCDCDC" d="M137.5,197.649c-1.849,0-3.341,1.493-3.341,3.341v26.735c0,1.849,1.492,3.34,3.341,3.34
	c1.85,0,3.343-1.491,3.343-3.34V200.99C140.843,199.143,139.35,197.649,137.5,197.649"/>
<g>
	<path fill="#DCDCDC" d="M137.5,263.519c-69.486,0-126.019-56.531-126.019-126.019S68.014,11.481,137.5,11.481
		c69.487,0,126.019,56.531,126.019,126.019S206.987,263.519,137.5,263.519z M137.5,20.481c-64.524,0-117.019,52.494-117.019,117.019
		S72.976,254.519,137.5,254.519S254.519,202.024,254.519,137.5S202.024,20.481,137.5,20.481z"/>
</g>
</svg>
