<?xml version="1.0" encoding="utf-8"?>
<!-- Generator: Adobe Illustrator 16.0.4, SVG Export Plug-In . SVG Version: 6.00 Build 0)  -->
<!DOCTYPE svg PUBLIC "-//W3C//DTD SVG 1.1//EN" "http://www.w3.org/Graphics/SVG/1.1/DTD/svg11.dtd">
<svg version="1.1" id="Layer_1" xmlns="http://www.w3.org/2000/svg" xmlns:xlink="http://www.w3.org/1999/xlink" x="0px" y="0px"
	 width="275px" height="275px" viewBox="0 0 275 275" enable-background="new 0 0 275 275" xml:space="preserve">
<path fill="#e55e5e" d="M124.134,200.99c-1.849,0-3.341,1.494-3.341,3.343v20.05c0,1.85,1.492,3.344,3.341,3.344
	c1.85,0,3.342-1.494,3.342-3.344v-20.05C127.476,202.484,125.983,200.99,124.134,200.99"/>
<path fill="#e55e5e" d="M150.867,200.99c-1.85,0-3.342,1.494-3.342,3.343v20.05c0,1.85,1.492,3.344,3.342,3.344
	c1.849,0,3.342-1.494,3.342-3.344v-20.05C154.209,202.484,152.716,200.99,150.867,200.99"/>
<path fill="#e55e5e" d="M211.018,90.717v-6.683c0-22.056-18.311-40.1-40.676-40.1H137.5h-32.842
	c-22.364,0-40.674,18.044-40.674,40.1v6.683H137.5H211.018z"/>
<path fill="#e55e5e" d="M217.699,144.184v-33.417c0,0,0-6.683-6.684-6.683V97.4H137.5H63.984v6.684
	c-6.683,0-6.683,6.683-6.683,6.683v33.417c-8.48,3.75-13.367,10.752-13.367,20.051c0,12.424,19.911,29.826,19.911,33.416
	c0,20.052,13.858,33.416,34.074,33.416c7.392,0,14.171-2.344,19.628-6.224c-0.018-0.159-0.096-0.294-0.096-0.46v-20.05
	c0-3.69,3.002-6.685,6.683-6.685c2.98,0,5.421,1.998,6.278,4.699h0.404v-1.357c0-3.688,3.002-6.684,6.684-6.684
	c3.682,0,6.684,2.993,6.684,6.684v1.357h0.404c0.857-2.701,3.299-4.699,6.279-4.699c3.682,0,6.684,2.994,6.684,6.685v20.05
	c0,0.166-0.078,0.301-0.097,0.46c5.457,3.88,12.235,6.224,19.628,6.224c20.217,0,34.074-13.364,34.074-33.416
	c0-3.59,19.91-20.992,19.91-33.416C231.066,154.936,226.18,147.934,217.699,144.184 M94.059,217.7
	c-5.534,0-10.025-4.491-10.025-10.025s4.491-10.024,10.025-10.024c5.535,0,10.025,4.49,10.025,10.024S99.594,217.7,94.059,217.7
	 M104.084,170.916H92.623c-1.109,0-1.906-0.602-1.906-1.335c0-0.74,0.796-1.502,1.906-1.724l11.461-3.625V170.916z M124.134,162.492
	c-3.903,1.613-7.675,3.625-11.382,5.447c-0.605,0.297-1.306,0.519-1.985,0.754v-9.264c4.747-4.08,8.981-6.88,13.367-8.718V162.492z
	 M90.717,137.5c-13.366,0-13.366-26.733-13.366-26.733h53.465C130.816,110.767,104.084,137.5,90.717,137.5 M144.184,160.266
	c-2.18-0.521-4.397-0.836-6.684-0.836s-4.504,0.313-6.684,0.836v-11.578c2.115-0.418,4.321-0.68,6.684-0.777
	c2.363,0.1,4.568,0.359,6.684,0.777V160.266z M164.232,168.693c-0.678-0.235-1.379-0.457-1.982-0.754
	c-3.707-1.822-7.48-3.834-11.383-5.447v-11.778c4.385,1.838,8.619,4.636,13.365,8.716V168.693z M180.941,217.7
	c-5.535,0-10.025-4.491-10.025-10.025s4.49-10.024,10.025-10.024s10.023,4.49,10.023,10.024S186.477,217.7,180.941,217.7
	 M170.916,170.916v-6.684l11.461,3.625c1.109,0.222,1.907,0.981,1.907,1.724c0,0.733-0.798,1.335-1.907,1.335H170.916z
	 M184.284,137.5c-13.368,0-40.101-26.733-40.101-26.733h53.467C197.65,110.767,197.65,137.5,184.284,137.5"/>
<path fill="#e55e5e" d="M137.5,197.648c-1.85,0-3.342,1.494-3.342,3.342v26.734c0,1.85,1.492,3.34,3.342,3.34
	c1.85,0,3.342-1.49,3.342-3.34V200.99C140.842,199.143,139.35,197.648,137.5,197.648"/>
<g>
	<path fill="#e55e5e" d="M137.5,263.52c-69.487,0-126.019-56.531-126.019-126.02c0-69.488,56.532-126.019,126.019-126.019
		c69.486,0,126.02,56.531,126.02,126.019C263.52,206.988,206.986,263.52,137.5,263.52z M137.5,20.481
		c-64.524,0-117.019,52.494-117.019,117.019c0,64.525,52.495,117.02,117.019,117.02c64.523,0,117.02-52.496,117.02-117.02
		C254.52,72.976,202.023,20.481,137.5,20.481z"/>
</g>
</svg>
