<?xml version="1.0" encoding="utf-8"?>
<!-- Generator: Adobe Illustrator 16.0.4, SVG Export Plug-In . SVG Version: 6.00 Build 0)  -->
<!DOCTYPE svg PUBLIC "-//W3C//DTD SVG 1.1//EN" "http://www.w3.org/Graphics/SVG/1.1/DTD/svg11.dtd">
<svg version="1.1" id="Layer_1" xmlns="http://www.w3.org/2000/svg" xmlns:xlink="http://www.w3.org/1999/xlink" x="0px" y="0px"
	 width="275px" height="275px" viewBox="0 0 275 275" enable-background="new 0 0 275 275" xml:space="preserve">
<circle fill="#DDDBDB" cx="137.5" cy="137.5" r="121.501"/>
<g>
	<path fill="#555555" d="M90.031,173.48c2.031-7.496,2.758-10.367,7.335-16.756c5.104-7.125,12.017-11.584,20.45-13.763
		c6.073-1.567,12.233-1.813,18.446-1.131c0.19,0.021,0.377,0.069,0.635,0.119c0,11.868,0,5.415,0,17.257l56.833-36.071
		l-56.794-35.394c0,11.323,0,6.346,0,17.795c-1.053,0.124-2.066,0.23-3.074,0.359c-7.752,0.989-15.181,3.04-22.1,6.755
		c-9.091,4.882-15.97,9.408-20.931,18.41c-3.903,7.083-6.294,14.687-7.759,22.608c-1.103,5.957-1.626,11.978-1.732,18.031
		c-0.003,0.209-0.045,0.416-0.07,0.624c0,1.023,0,2.052,0,3.076c0.026,0.211,0.061,0.418,0.075,0.63
		c0.272,4.132,0.499,8.265,0.827,12.392c0.156,1.952,0.504,3.891,0.764,5.833C83.194,194.258,88.514,179.085,90.031,173.48z"/>
</g>
</svg>
