<?xml version="1.0" encoding="utf-8"?>
<!-- Generator: Adobe Illustrator 16.0.4, SVG Export Plug-In . SVG Version: 6.00 Build 0)  -->
<!DOCTYPE svg PUBLIC "-//W3C//DTD SVG 1.1//EN" "http://www.w3.org/Graphics/SVG/1.1/DTD/svg11.dtd">
<svg version="1.1" id="Layer_1" xmlns="http://www.w3.org/2000/svg" xmlns:xlink="http://www.w3.org/1999/xlink" x="0px" y="0px"
	 width="275px" height="275px" viewBox="0 0 275 275" enable-background="new 0 0 275 275" xml:space="preserve">
<path fill="#A9A9A9" d="M124.133,200.99c-1.848,0-3.34,1.494-3.34,3.343v20.05c0,1.849,1.492,3.343,3.34,3.343
	c1.85,0,3.342-1.494,3.342-3.343v-20.05C127.475,202.484,125.983,200.99,124.133,200.99"/>
<path fill="#A9A9A9" d="M150.867,200.99c-1.85,0-3.342,1.494-3.342,3.343v20.05c0,1.849,1.492,3.343,3.342,3.343
	c1.848,0,3.342-1.494,3.342-3.343v-20.05C154.209,202.484,152.715,200.99,150.867,200.99"/>
<path fill="#A9A9A9" d="M211.017,90.717v-6.683c0-22.056-18.311-40.1-40.675-40.1H137.5h-32.842
	c-22.364,0-40.674,18.044-40.674,40.1v6.683H137.5H211.017z"/>
<path fill="#A9A9A9" d="M217.7,144.184v-33.417c0,0,0-6.683-6.684-6.683V97.4H137.5H63.984v6.684c-6.683,0-6.683,6.683-6.683,6.683
	v33.417c-8.48,3.75-13.367,10.752-13.367,20.05c0,12.423,19.911,29.827,19.911,33.416c0,20.051,13.858,33.416,34.073,33.416
	c7.393,0,14.171-2.344,19.628-6.223c-0.018-0.159-0.096-0.294-0.096-0.46v-20.05c0-3.69,3.002-6.684,6.682-6.684
	c2.98,0,5.421,1.997,6.279,4.699h0.404v-1.358c0-3.688,3.002-6.683,6.684-6.683s6.684,2.994,6.684,6.683v1.358h0.404
	c0.857-2.702,3.299-4.699,6.279-4.699c3.682,0,6.684,2.993,6.684,6.684v20.05c0,0.166-0.078,0.301-0.098,0.46
	c5.458,3.879,12.236,6.223,19.628,6.223c20.216,0,34.074-13.365,34.074-33.416c0-3.589,19.91-20.993,19.91-33.416
	C231.065,154.936,226.179,147.934,217.7,144.184 M94.06,217.7c-5.534,0-10.025-4.491-10.025-10.025s4.491-10.025,10.025-10.025
	s10.024,4.491,10.024,10.025S99.594,217.7,94.06,217.7 M104.084,170.916H92.623c-1.109,0-1.905-0.602-1.905-1.335
	c0-0.74,0.796-1.502,1.905-1.724l11.461-3.624V170.916z M124.133,162.492c-3.903,1.614-7.674,3.625-11.381,5.448
	c-0.605,0.296-1.306,0.518-1.985,0.753v-9.264c4.748-4.08,8.981-6.878,13.367-8.716V162.492z M90.718,137.5
	c-13.366,0-13.366-26.733-13.366-26.733h53.465C130.816,110.767,104.084,137.5,90.718,137.5 M144.184,160.265
	c-2.18-0.521-4.4-0.835-6.684-0.835c-2.285,0-4.504,0.313-6.684,0.835v-11.578c2.115-0.417,4.32-0.679,6.684-0.778
	c2.363,0.1,4.568,0.361,6.684,0.778V160.265z M164.233,168.693c-0.678-0.235-1.379-0.457-1.982-0.753
	c-3.708-1.823-7.481-3.834-11.383-5.448v-11.778c4.385,1.838,8.619,4.636,13.366,8.716V168.693z M180.941,217.7
	c-5.535,0-10.025-4.491-10.025-10.025s4.49-10.025,10.025-10.025s10.027,4.491,10.027,10.025S186.476,217.7,180.941,217.7
	 M170.916,170.916v-6.683l11.46,3.624c1.111,0.222,1.908,0.983,1.908,1.724c0,0.733-0.797,1.335-1.908,1.335H170.916z
	 M184.285,137.5c-13.369,0-40.101-26.733-40.101-26.733h53.466C197.649,110.767,197.649,137.5,184.285,137.5"/>
<path fill="#A9A9A9" d="M137.5,197.649c-1.85,0-3.342,1.493-3.342,3.341v26.735c0,1.849,1.492,3.34,3.342,3.34
	s3.342-1.491,3.342-3.34V200.99C140.842,199.143,139.35,197.649,137.5,197.649"/>
</svg>
