<?xml version="1.0" encoding="utf-8"?>
<!-- Generator: Adobe Illustrator 16.0.4, SVG Export Plug-In . SVG Version: 6.00 Build 0)  -->
<!DOCTYPE svg PUBLIC "-//W3C//DTD SVG 1.1//EN" "http://www.w3.org/Graphics/SVG/1.1/DTD/svg11.dtd">
<svg version="1.1" id="Layer_1" xmlns="http://www.w3.org/2000/svg" xmlns:xlink="http://www.w3.org/1999/xlink" x="0px" y="0px"
	 width="275px" height="275px" viewBox="0 0 275 275" enable-background="new 0 0 275 275" xml:space="preserve">
<g>
	<path fill="#DDDBDB" d="M86.034,162.187c-13.601,0-24.666-11.065-24.666-24.666s11.065-24.666,24.666-24.666
		c13.601,0,24.666,11.065,24.666,24.666S99.635,162.187,86.034,162.187z M86.034,121.854c-8.638,0-15.666,7.027-15.666,15.666
		s7.028,15.666,15.666,15.666s15.666-7.027,15.666-15.666S94.672,121.854,86.034,121.854z"/>
</g>
<g>
	<path fill="#DDDBDB" d="M188.967,84.711c-13.601,0-24.666-11.065-24.666-24.666s11.065-24.666,24.666-24.666
		c13.601,0,24.665,11.065,24.665,24.666S202.567,84.711,188.967,84.711z M188.967,44.379c-8.638,0-15.666,7.027-15.666,15.666
		s7.028,15.666,15.666,15.666c8.638,0,15.665-7.027,15.665-15.666S197.604,44.379,188.967,44.379z"/>
</g>
<g>
	<path fill="#DDDBDB" d="M188.967,237.621c-13.601,0-24.666-11.065-24.666-24.666s11.065-24.666,24.666-24.666
		c13.601,0,24.665,11.065,24.665,24.666S202.567,237.621,188.967,237.621z M188.967,197.289c-8.638,0-15.666,7.027-15.666,15.666
		s7.028,15.666,15.666,15.666c8.638,0,15.665-7.027,15.665-15.666S197.604,197.289,188.967,197.289z"/>
</g>
<g>
	<line fill="#DDDBDB" x1="98.229" y1="147.339" x2="176.28" y2="203.78"/>
	
		<rect x="89.094" y="168.56" transform="matrix(0.8103 0.586 -0.586 0.8103 128.9074 -47.1291)" fill="#DDDBDB" width="96.32" height="14"/>
</g>
<g>
	<line fill="#DDDBDB" x1="98.545" y1="128.104" x2="176.455" y2="69.462"/>
	
		<rect x="130.5" y="50.026" transform="matrix(0.6014 0.799 -0.799 0.6014 133.7382 -70.481)" fill="#DDDBDB" width="14" height="97.513"/>
</g>
</svg>
